<svg width="551" height="110" viewBox="0 0 551 110" fill="none" xmlns="http://www.w3.org/2000/svg">
<path d="M291.33 30.3753C289.323 30.3753 287.736 31.0457 286.571 32.3863C285.413 33.7186 284.835 35.5463 284.835 37.8696C284.835 40.2594 285.392 42.1079 286.508 43.4153C287.632 44.7143 289.231 45.3638 291.305 45.3638C292.579 45.3638 294.032 45.1348 295.664 44.6768V46.5379C294.398 47.0125 292.837 47.2498 290.98 47.2498C288.29 47.2498 286.213 46.4338 284.747 44.8017C283.29 43.1696 282.561 40.8506 282.561 37.8446C282.561 35.9627 282.911 34.314 283.61 32.8984C284.318 31.4828 285.334 30.392 286.658 29.6259C287.99 28.8598 289.556 28.4768 291.355 28.4768C293.27 28.4768 294.943 28.8265 296.376 29.526L295.476 31.3496C294.094 30.7001 292.712 30.3753 291.33 30.3753ZM310.084 47H299.904V28.7391H310.084V30.6251H302.027V36.5081H309.596V38.3817H302.027V45.1015H310.084V47ZM328.663 47H326.24L316.26 31.6743H316.16C316.293 33.4729 316.36 35.1217 316.36 36.6205V47H314.399V28.7391H316.797L326.752 44.0023H326.852C326.835 43.7775 326.797 43.0572 326.739 41.8415C326.681 40.6174 326.66 39.7431 326.677 39.2185V28.7391H328.663V47ZM339.56 47H337.437V30.6251H331.654V28.7391H345.343V30.6251H339.56V47ZM358.539 47H348.359V28.7391H358.539V30.6251H350.483V36.5081H358.052V38.3817H350.483V45.1015H358.539V47ZM364.978 39.4059V47H362.854V28.7391H367.863C370.103 28.7391 371.756 29.1679 372.822 30.0256C373.896 30.8833 374.433 32.1739 374.433 33.8976C374.433 36.3124 373.209 37.9445 370.761 38.7938L375.719 47H373.209L368.787 39.4059H364.978ZM364.978 37.5823H367.888C369.387 37.5823 370.486 37.2867 371.185 36.6955C371.885 36.0959 372.235 35.2008 372.235 34.01C372.235 32.8026 371.876 31.9325 371.16 31.3995C370.453 30.8666 369.312 30.6002 367.738 30.6002H364.978V37.5823ZM387.947 47H385.824V28.7391H396.003V30.6251H387.947V37.3075H395.516V39.1935H387.947V47ZM415.144 37.8446C415.144 40.7673 414.403 43.0655 412.921 44.7392C411.447 46.413 409.395 47.2498 406.763 47.2498C404.074 47.2498 401.996 46.4296 400.531 44.7892C399.073 43.1405 398.345 40.8173 398.345 37.8196C398.345 34.8469 399.078 32.5445 400.543 30.9124C402.009 29.272 404.09 28.4518 406.788 28.4518C409.411 28.4518 411.46 29.2845 412.934 30.9499C414.407 32.6153 415.144 34.9135 415.144 37.8446ZM400.593 37.8446C400.593 40.3177 401.118 42.1954 402.167 43.4777C403.224 44.7517 404.757 45.3887 406.763 45.3887C408.787 45.3887 410.315 44.7517 411.347 43.4777C412.38 42.2037 412.896 40.326 412.896 37.8446C412.896 35.3881 412.38 33.5271 411.347 32.2614C410.323 30.9874 408.803 30.3504 406.788 30.3504C404.765 30.3504 403.224 30.9915 402.167 32.2739C401.118 33.5479 400.593 35.4048 400.593 37.8446ZM421.608 39.4059V47H419.485V28.7391H424.493C426.733 28.7391 428.386 29.1679 429.452 30.0256C430.526 30.8833 431.063 32.1739 431.063 33.8976C431.063 36.3124 429.839 37.9445 427.391 38.7938L432.35 47H429.839L425.417 39.4059H421.608ZM421.608 37.5823H424.518C426.017 37.5823 427.116 37.2867 427.816 36.6955C428.515 36.0959 428.865 35.2008 428.865 34.01C428.865 32.8026 428.507 31.9325 427.791 31.3995C427.083 30.8666 425.942 30.6002 424.368 30.6002H421.608V37.5823ZM295.089 63.06C295.089 64.9086 294.456 66.3325 293.191 67.3317C291.933 68.3226 290.13 68.818 287.782 68.818H285.634V76H283.511V57.7391H288.244C292.808 57.7391 295.089 59.5127 295.089 63.06ZM285.634 66.9945H287.545C289.427 66.9945 290.788 66.6905 291.629 66.0827C292.47 65.4748 292.891 64.5005 292.891 63.1599C292.891 61.9525 292.495 61.0532 291.704 60.462C290.913 59.8708 289.681 59.5752 288.007 59.5752H285.634V66.9945ZM312.969 57.7391V69.555C312.969 71.6367 312.34 73.2729 311.083 74.4637C309.825 75.6544 308.098 76.2498 305.899 76.2498C303.701 76.2498 301.998 75.6503 300.791 74.4512C299.592 73.2521 298.992 71.6034 298.992 69.505V57.7391H301.115V69.6549C301.115 71.1787 301.532 72.3487 302.365 73.1647C303.197 73.9807 304.421 74.3887 306.037 74.3887C307.577 74.3887 308.764 73.9807 309.596 73.1647C310.429 72.3403 310.845 71.1621 310.845 69.6299V57.7391H312.969ZM318.071 57.7391H323.229C325.653 57.7391 327.405 58.1013 328.488 58.8258C329.57 59.5502 330.112 60.6952 330.112 62.2606C330.112 63.3431 329.808 64.2382 329.2 64.946C328.6 65.6455 327.722 66.0993 326.564 66.3075V66.4324C329.337 66.907 330.724 68.3642 330.724 70.804C330.724 72.4361 330.17 73.7101 329.062 74.6261C327.963 75.542 326.423 76 324.441 76H318.071V57.7391ZM320.194 65.5581H323.692C325.19 65.5581 326.269 65.3249 326.927 64.8586C327.584 64.384 327.913 63.5888 327.913 62.4729C327.913 61.4487 327.547 60.7118 326.814 60.2622C326.081 59.8042 324.916 59.5752 323.317 59.5752H320.194V65.5581ZM320.194 67.3567V74.1889H324.004C325.478 74.1889 326.585 73.9058 327.326 73.3396C328.076 72.765 328.45 71.8699 328.45 70.6541C328.45 69.5217 328.067 68.689 327.301 68.1561C326.544 67.6231 325.386 67.3567 323.829 67.3567H320.194ZM334.914 76V57.7391H337.037V74.0765H345.094V76H334.914ZM348.459 76V57.7391H350.583V76H348.459ZM363.679 59.3753C361.672 59.3753 360.086 60.0457 358.92 61.3863C357.762 62.7186 357.184 64.5463 357.184 66.8696C357.184 69.2594 357.742 71.1079 358.857 72.4153C359.982 73.7143 361.58 74.3638 363.654 74.3638C364.928 74.3638 366.381 74.1348 368.013 73.6768V75.5379C366.747 76.0125 365.186 76.2498 363.329 76.2498C360.639 76.2498 358.562 75.4338 357.096 73.8017C355.639 72.1696 354.91 69.8506 354.91 66.8446C354.91 64.9627 355.26 63.314 355.96 61.8984C356.667 60.4828 357.683 59.392 359.007 58.6259C360.34 57.8598 361.905 57.4768 363.704 57.4768C365.619 57.4768 367.293 57.8265 368.725 58.526L367.825 60.3496C366.443 59.7001 365.061 59.3753 363.679 59.3753ZM389.333 76H379.154V57.7391H389.333V59.6251H381.277V65.5081H388.846V67.3817H381.277V74.1015H389.333V76ZM407.913 76H405.489L395.51 60.6743H395.41C395.543 62.4729 395.61 64.1217 395.61 65.6205V76H393.649V57.7391H396.047L406.001 73.0023H406.101C406.085 72.7775 406.047 72.0572 405.989 70.8415C405.931 69.6174 405.91 68.7431 405.927 68.2185V57.7391H407.913V76ZM421.221 66.4324H427.428V75.313C426.463 75.6211 425.48 75.8543 424.481 76.0125C423.481 76.1707 422.324 76.2498 421.008 76.2498C418.244 76.2498 416.091 75.4296 414.551 73.7892C413.01 72.1405 412.24 69.8339 412.24 66.8696C412.24 64.971 412.619 63.3098 413.377 61.8859C414.143 60.4537 415.242 59.3628 416.674 58.6134C418.106 57.8557 419.784 57.4768 421.708 57.4768C423.656 57.4768 425.472 57.8349 427.154 58.551L426.329 60.4245C424.681 59.7251 423.094 59.3753 421.57 59.3753C419.347 59.3753 417.611 60.0373 416.362 61.3613C415.113 62.6853 414.488 64.5214 414.488 66.8696C414.488 69.3343 415.088 71.2037 416.287 72.4777C417.494 73.7517 419.264 74.3887 421.595 74.3887C422.861 74.3887 424.098 74.243 425.305 73.9516V68.3309H421.221V66.4324ZM443.559 76L441.286 70.192H433.967L431.719 76H429.57L436.79 57.6642H438.576L445.758 76H443.559ZM440.624 68.281L438.501 62.6228C438.226 61.9067 437.943 61.0282 437.652 59.9874C437.468 60.7867 437.206 61.6652 436.865 62.6228L434.716 68.281H440.624ZM456.555 66.4324H462.763V75.313C461.797 75.6211 460.815 75.8543 459.815 76.0125C458.816 76.1707 457.659 76.2498 456.343 76.2498C453.579 76.2498 451.426 75.4296 449.886 73.7892C448.345 72.1405 447.575 69.8339 447.575 66.8696C447.575 64.971 447.954 63.3098 448.711 61.8859C449.478 60.4537 450.577 59.3628 452.009 58.6134C453.441 57.8557 455.119 57.4768 457.043 57.4768C458.991 57.4768 460.806 57.8349 462.488 58.551L461.664 60.4245C460.015 59.7251 458.429 59.3753 456.905 59.3753C454.682 59.3753 452.946 60.0373 451.697 61.3613C450.448 62.6853 449.823 64.5214 449.823 66.8696C449.823 69.3343 450.423 71.2037 451.622 72.4777C452.829 73.7517 454.599 74.3887 456.93 74.3887C458.196 74.3887 459.432 74.243 460.64 73.9516V68.3309H456.555V66.4324ZM477.595 76H467.416V57.7391H477.595V59.6251H469.539V65.5081H477.108V67.3817H469.539V74.1015H477.595V76ZM489.992 76L483.796 59.8125H483.696C483.813 61.0948 483.871 62.6187 483.871 64.384V76H481.91V57.7391H485.108L490.891 72.8025H490.991L496.824 57.7391H499.996V76H497.873V64.2341C497.873 62.8851 497.931 61.4196 498.048 59.8375H497.948L491.703 76H489.992ZM515.453 76H505.273V57.7391H515.453V59.6251H507.397V65.5081H514.966V67.3817H507.397V74.1015H515.453V76ZM534.032 76H531.609L521.629 60.6743H521.529C521.663 62.4729 521.729 64.1217 521.729 65.6205V76H519.768V57.7391H522.166L532.121 73.0023H532.221C532.204 72.7775 532.167 72.0572 532.109 70.8415C532.05 69.6174 532.029 68.7431 532.046 68.2185V57.7391H534.032V76ZM544.93 76H542.806V59.6251H537.023V57.7391H550.713V59.6251H544.93V76ZM299.448 105H297.35L293.665 92.7719C293.49 92.2307 293.295 91.5479 293.078 90.7235C292.862 89.8992 292.749 89.4037 292.741 89.2372C292.558 90.3363 292.266 91.5396 291.867 92.8469L288.294 105H286.196L281.337 86.7391H283.586L286.471 98.0179C286.87 99.6 287.162 101.032 287.345 102.315C287.57 100.791 287.903 99.3002 288.344 97.843L291.617 86.7391H293.865L297.3 97.9429C297.7 99.2336 298.037 100.691 298.312 102.315C298.47 101.132 298.77 99.6916 299.211 97.9929L302.084 86.7391H304.332L299.448 105ZM307.448 105V86.7391H309.571V105H307.448ZM320.469 105H318.346V88.6251H312.563V86.7391H326.252V88.6251H320.469V105ZM343.133 105H341.009V96.4066H331.392V105H329.268V86.7391H331.392V94.5081H341.009V86.7391H343.133V105ZM365.615 100.141C365.615 101.748 365.032 103.002 363.866 103.901C362.7 104.8 361.118 105.25 359.12 105.25C356.955 105.25 355.289 104.971 354.124 104.413V102.365C354.873 102.681 355.689 102.931 356.572 103.114C357.454 103.297 358.329 103.389 359.195 103.389C360.61 103.389 361.676 103.122 362.392 102.589C363.108 102.048 363.466 101.299 363.466 100.341C363.466 99.7083 363.337 99.192 363.079 98.7923C362.829 98.3843 362.405 98.0096 361.805 97.6682C361.214 97.3268 360.31 96.9396 359.095 96.5066C357.396 95.8987 356.18 95.1784 355.448 94.3457C354.723 93.513 354.361 92.4264 354.361 91.0857C354.361 89.6785 354.89 88.5585 355.947 87.7258C357.005 86.8931 358.404 86.4768 360.144 86.4768C361.959 86.4768 363.629 86.8099 365.153 87.476L364.491 89.3246C362.983 88.6918 361.518 88.3753 360.094 88.3753C358.97 88.3753 358.091 88.6168 357.458 89.0998C356.826 89.5827 356.509 90.2531 356.509 91.1107C356.509 91.7436 356.626 92.264 356.859 92.672C357.092 93.0717 357.483 93.4423 358.033 93.7837C358.591 94.1167 359.44 94.4873 360.581 94.8953C362.496 95.5781 363.812 96.3109 364.528 97.0936C365.252 97.8763 365.615 98.8922 365.615 100.141ZM377.424 88.3753C375.417 88.3753 373.831 89.0457 372.665 90.3863C371.508 91.7186 370.929 93.5463 370.929 95.8696C370.929 98.2594 371.487 100.108 372.603 101.415C373.727 102.714 375.326 103.364 377.399 103.364C378.673 103.364 380.126 103.135 381.758 102.677V104.538C380.493 105.012 378.931 105.25 377.074 105.25C374.385 105.25 372.307 104.434 370.842 102.802C369.384 101.17 368.656 98.8506 368.656 95.8446C368.656 93.9627 369.006 92.314 369.705 90.8984C370.413 89.4828 371.429 88.392 372.753 87.6259C374.085 86.8598 375.65 86.4768 377.449 86.4768C379.364 86.4768 381.038 86.8265 382.47 87.526L381.571 89.3496C380.189 88.7001 378.806 88.3753 377.424 88.3753ZM385.998 105V86.7391H388.122V105H385.998ZM403.578 105H393.399V86.7391H403.578V88.6251H395.522V94.5081H403.091V96.3817H395.522V103.101H403.578V105ZM422.158 105H419.734L409.755 89.6743H409.655C409.788 91.4729 409.855 93.1217 409.855 94.6205V105H407.894V86.7391H410.292L420.246 102.002H420.346C420.33 101.777 420.292 101.057 420.234 99.8415C420.176 98.6174 420.155 97.7431 420.172 97.2185V86.7391H422.158V105ZM435.253 88.3753C433.247 88.3753 431.66 89.0457 430.495 90.3863C429.337 91.7186 428.758 93.5463 428.758 95.8696C428.758 98.2594 429.316 100.108 430.432 101.415C431.556 102.714 433.155 103.364 435.228 103.364C436.502 103.364 437.955 103.135 439.588 102.677V104.538C438.322 105.012 436.761 105.25 434.904 105.25C432.214 105.25 430.137 104.434 428.671 102.802C427.214 101.17 426.485 98.8506 426.485 95.8446C426.485 93.9627 426.835 92.314 427.534 90.8984C428.242 89.4828 429.258 88.392 430.582 87.6259C431.914 86.8598 433.48 86.4768 435.278 86.4768C437.194 86.4768 438.867 86.8265 440.3 87.526L439.4 89.3496C438.018 88.7001 436.636 88.3753 435.253 88.3753ZM454.007 105H443.828V86.7391H454.007V88.6251H445.951V94.5081H453.52V96.3817H445.951V103.101H454.007V105Z" fill="white"/>
<g clip-path="url(#clip0)">
<path d="M9.81871 54.4295L9.93066 53.6773L12.7937 53.7418L15.4099 53.6773L15.5219 54.4295L13.6212 54.7089V63.4799C13.6212 66.2741 12.4356 68.1443 7.98425 69.1335C3.57869 69.1335 2.01357 66.8549 2.01357 63.4365V54.7089L6.10352e-05 54.4295L0.111702 53.6773L3.19862 53.7418L6.26235 53.6773L6.3743 54.4295L4.47334 54.7089V63.7593C4.47334 66.4248 5.65869 67.9511 8.20845 67.9511C10.5343 67.9511 11.8313 66.4465 11.8313 63.6951V54.7089L9.81871 54.4295ZM18.8366 68.7037L16.2643 68.7682L16.1527 68.0156L17.7184 67.8001V59.9544L16.1527 60.0834L16.0407 59.3309L18.725 58.6648L19.6865 58.6003L19.7981 60.4059L23.1083 58.3209C25.971 58.3209 26.4408 59.2452 26.4408 61.8249V67.8004L28.1407 68.0159L28.0294 68.7685L25.457 68.704L23.3099 68.7685L23.198 68.0159L24.3165 67.8004V61.6528C24.3165 60.5352 23.8016 60.0406 22.8402 60.0406C22.0572 60.0406 21.2745 60.5138 20.514 61.0081L19.8429 61.4379V67.8004L21.0731 68.0159L20.9612 68.7685L18.8366 68.704V68.7037ZM31.274 53.9138L32.8846 53.8062L33.5102 53.9138L33.6221 55.1173L33.376 56.1493L31.7883 56.2783L31.1843 56.1493L31.0501 54.9458L31.274 53.9138ZM32.3922 68.7037L29.8199 68.7682L29.7086 68.0156L31.274 67.8001V59.9544L29.7086 60.0834L29.5963 59.3309L32.2806 58.6648L33.3985 58.5789V67.8004L35.0762 68.0159L34.9643 68.7685L32.3922 68.704V68.7037ZM41.7131 67.3706L44.419 59.5888L43.3904 59.374L43.5024 58.6214L45.4704 58.6859L47.3266 58.6214L47.4385 59.374L46.007 59.5888L42.3393 68.424L40.7062 69.069L36.8149 59.5888L35.4279 59.374L35.5399 58.6214L38.1119 58.6859L40.4606 58.6214L40.5719 59.374L39.0959 59.5888L41.534 65.8874L41.7128 67.3709L41.7131 67.3706ZM54.6327 62.1899C54.6327 60.5349 54.2977 59.3954 52.5755 59.3954C51.2108 59.3954 50.3387 60.6205 50.1597 62.4051L54.6327 62.1899ZM50.1374 63.265C50.1374 65.7151 51.5015 67.4565 53.8503 67.4565C54.7446 67.4565 55.8183 67.0484 56.6456 66.5535L57.004 67.3706C55.9303 68.0801 54.5213 68.6817 53.0898 69.069C50.3836 69.069 47.9458 67.2202 47.9458 63.8452C47.9458 60.6639 49.9358 58.9656 53.0001 58.3206C55.9525 58.3206 56.9591 60.1048 56.9591 62.3617V63.265H50.1374ZM62.0641 61.4376L64.6139 58.4279H66.4032V60.5774H64.7481C64.2113 60.685 63.2269 61.3945 62.6233 62.104L62.1761 62.62V67.7359L64.5242 67.9511L64.4129 68.7682L61.1695 68.7037L58.6646 68.7682L58.5529 68.0156L60.1183 67.8001V59.9544L58.5529 60.0834L58.4407 59.3309L61.125 58.6648L62.0193 58.6003L62.0641 61.4379V61.4376ZM73.6123 59.8468C73.389 59.7178 72.718 59.374 71.9127 59.374C71.0406 59.374 70.2134 59.8254 70.2134 60.6419C70.2134 61.33 70.7722 61.7601 71.7782 62.2544L73.5007 63.0926C74.999 63.8241 75.6029 64.6406 75.6029 65.8657C75.6029 67.8001 73.9704 68.5316 71.3984 69.069C70.0337 69.069 68.5799 68.424 67.9985 68.1015L67.5733 65.6725H69.0051L69.7656 67.4565C70.2353 67.7576 70.8835 67.9942 71.5994 67.9942C72.7851 67.9942 73.389 67.263 73.389 66.3606C73.389 65.5216 72.9193 65.1566 71.7565 64.5761L69.9892 63.6951C69.0274 63.2219 68.1108 62.4051 68.1108 61.2013C68.1108 59.6964 69.5642 58.858 72.1585 58.3206C73.3671 58.3206 74.6641 58.8366 75.3122 59.2881V61.4376H74.1272L73.6123 59.8468ZM78.8232 53.9138L80.4337 53.8062L81.0593 53.9138L81.1713 55.1173L80.9251 56.1493L79.3371 56.2783L78.7335 56.1493L78.5993 54.9458L78.8232 53.9138ZM79.9411 68.7037L77.3685 68.7682L77.2571 68.0156L78.8229 67.8001V59.9544L77.2571 60.0834L77.1458 59.3309L79.8292 58.6648L80.9471 58.5789V67.8004L82.6248 68.0159L82.5131 68.7685L79.9411 68.704V68.7037ZM82.9771 59.868V59.5029L83.7595 58.7504H85.2139V57.3534L86.6676 55.9558H87.2487V58.9011H90.626V59.868H87.271V66.1668C87.271 66.7901 87.5175 67.4568 88.4564 67.4568C89.1055 67.4568 89.5972 67.2416 90.2237 66.9408L90.6032 67.6717L87.9869 69.069C85.482 69.069 85.1462 68.2088 85.1462 66.2741V59.8682H82.9771V59.868ZM93.5434 73.7982V71.6483H95.4672L97.6811 68.4026L96.7868 68.6606L93.141 59.5888L91.7546 59.374L91.866 58.6214L94.438 58.6859L96.7868 58.6214L96.8987 59.374L95.4223 59.5888L97.7931 65.8874L97.9721 67.3709L100.634 59.5888L99.6049 59.374L99.7169 58.6214L101.685 58.6859L103.541 58.6214L103.653 59.374L102.222 59.5888L98.7097 68.3812L96.2054 73.7982H93.5434ZM116.135 68.0156C117.924 68.0156 118.841 66.2527 118.841 63.9311C118.841 61.2016 117.477 59.374 115.531 59.374C113.719 59.374 112.825 61.1368 112.825 63.4799C112.825 65.9302 114.144 68.0156 116.135 68.0156ZM121.078 63.4802C121.078 66.6825 119.043 68.5316 115.576 69.069C112.601 69.069 110.588 66.8549 110.588 63.9311C110.588 60.7064 112.624 58.8797 116.09 58.3206C119.065 58.3206 121.078 60.556 121.078 63.4799V63.4802ZM126.246 58.858H129.041V59.868H126.246V67.8001L128.818 67.9511L128.706 68.7682L125.24 68.7037L122.667 68.7682L122.555 68.0156L124.121 67.8001V59.868H122.153V59.5029L122.824 58.7504H124.121V58.5355C124.121 57.2455 124.546 56.4073 125.351 55.526L127.23 53.4835H130.048V55.2035H127.14L126.715 55.784C126.403 56.1924 126.246 56.816 126.246 58.213V58.858ZM26.9575 90.7311C26.9575 82.2478 33.1402 76.4626 42.1694 76.4626C45.9927 76.4626 49.2461 77.4397 52.175 79.5116L49.9376 82.5609C47.5382 80.9191 44.8942 80.059 42.0471 80.059C35.499 80.059 30.9436 84.398 30.9436 90.7311C30.9436 97.064 35.499 101.403 42.0471 101.403C44.8942 101.403 47.5382 100.544 49.9376 98.9014L52.175 101.951C49.2464 104.023 45.9927 105 42.1697 105C33.1402 105 26.9575 99.2142 26.9575 90.7311ZM59.8606 104.414H56.1999V77.0489H59.8606V104.414ZM84.023 94.3665C84.9991 95.305 85.8941 96.556 86.2604 97.4159L86.4227 97.3769C86.179 96.3214 86.0161 94.7183 86.0161 92.4512V77.0489H89.6768V104.804H89.3513L71.9838 87.0955C71.0482 86.1573 70.1536 84.9063 69.747 84.0464L69.6243 84.0854C69.869 85.1409 69.991 86.7437 69.991 88.9721V104.414H66.3306V76.6581H66.6966L84.023 94.3665ZM94.6036 90.7311C94.6036 82.2478 100.787 76.4626 109.816 76.4626C113.639 76.4626 116.893 77.4397 119.821 79.5116L117.584 82.5609C115.185 80.9191 112.541 80.059 109.694 80.059C103.145 80.059 98.5898 84.398 98.5898 90.7311C98.5898 97.064 103.145 101.403 109.694 101.403C112.541 101.403 115.185 100.544 117.584 98.9014L119.821 101.951C116.893 104.023 113.639 105 109.816 105C100.786 105 94.6036 99.2142 94.6036 90.7311ZM127.507 104.414H123.846V77.0489H127.507V104.414ZM151.67 94.3665C152.646 95.305 153.541 96.556 153.907 97.4159L154.07 97.3769C153.826 96.3214 153.663 94.7183 153.663 92.4512V77.0489H157.323V104.804H156.998L139.63 87.0955C138.695 86.1573 137.8 84.9063 137.393 84.0464L137.272 84.0854C137.515 85.1409 137.638 86.7437 137.638 88.9721V104.414H133.977V76.6581H134.343L151.67 94.3665ZM181.57 94.3665C182.547 95.305 183.442 96.556 183.808 97.4159L183.97 97.3769C183.726 96.3214 183.564 94.7183 183.564 92.4512V77.0489H187.225V104.804H186.899L169.531 87.0955C168.596 86.1573 167.701 84.9063 167.294 84.0464L167.172 84.0854C167.417 85.1409 167.539 86.7437 167.539 88.9721V104.414H163.878V76.6581H164.244L181.57 94.3665ZM201.759 93.7412H206.883C208.144 93.7412 208.795 93.7802 209.161 93.8195L209.202 93.7802C208.877 93.3894 208.47 92.764 207.941 91.552L205.419 85.8445C204.85 84.4373 204.483 83.3428 204.402 82.6389H204.239C204.159 83.3425 203.792 84.4373 203.223 85.8445L200.701 91.552C200.172 92.764 199.766 93.3894 199.44 93.7802L199.481 93.8195C199.847 93.7802 200.498 93.7412 201.759 93.7412ZM204.118 76.4626H204.525L217.824 104.414H213.717L210.178 96.7515H198.465L194.926 104.414H190.818L204.118 76.4626H204.118ZM235.804 80.4108H228.523C228.036 80.4108 227.75 80.4108 227.466 80.2935L227.426 80.3715C227.507 80.567 227.547 80.8799 227.547 81.3102V104.414H223.887V81.3102C223.887 80.8799 223.927 80.567 224.009 80.3715L223.927 80.2935C223.643 80.4108 223.398 80.4108 222.91 80.4108H215.589V77.0489H235.804V80.4108H235.804ZM242.999 104.414H239.338V77.0489H242.999V104.414Z" fill="white"/>
<path d="M187.215 0.0190444H173.542V3.85349H187.215V0.0190444ZM163.442 37.2553C163.442 26.7916 169.806 18.3305 179.207 13.5872V8.4455C165.696 12.698 156.006 23.6771 156.006 37.2553C156.006 43.9702 157.827 49.2169 161.002 53.915C152.646 52.5039 149.046 46.9019 149.046 37.2553V-0.000305176H134.053V3.83473H141.218V37.2553C141.218 50.6455 150.299 57.5999 164.122 57.8198C169.408 63.4675 176.889 67.4102 185.387 68.5741C186.058 68.6699 186.696 68.7359 187.226 68.7811V64.9724C186.543 64.8587 186.069 64.7519 186.069 64.7519C173.045 61.5657 163.442 50.9126 163.442 37.255" fill="black"/>
<path d="M195.052 37.2559V10.2949C204.3 10.2949 209.845 15.5814 210.144 21.6396L213.584 22.2899L215.993 8.80232L211.899 8.03654L211.398 10.9144C204.012 7.34377 197.814 6.69702 191.656 6.69702C190.147 6.69702 188.66 6.78292 187.198 6.95091L187.227 37.2559C187.227 43.1508 186.341 46.6287 183.202 50.338C179.749 46.6756 179.204 42.5166 179.204 37.2559C179.204 34.4531 179.208 21.1183 179.208 21.1183C174.626 25.3785 171.76 30.6721 171.76 37.2559C171.76 51.0305 182.826 61.7874 196.333 61.7874C200.968 61.7874 206.314 60.6982 210.215 58.1485L209.231 56.7362C203.966 59.3188 193.277 59.9201 186.746 54.0452C192.267 50.1287 195.053 45.1162 195.053 37.2559" fill="black"/>
</g>
<rect x="262" y="27" width="2" height="78" fill="#C4C4C4"/>
<defs>
<clipPath id="clip0">
<rect width="243" height="105" fill="white"/>
</clipPath>
</defs>
</svg>
